<?xml version="1.0" standalone="no"?>
<!DOCTYPE svg PUBLIC "-//W3C//DTD SVG 20010904//EN"
 "http://www.w3.org/TR/2001/REC-SVG-20010904/DTD/svg10.dtd">
<svg version="1.0" xmlns="http://www.w3.org/2000/svg"
 width="24.000000pt" height="24.000000pt" viewBox="0 0 24.000000 24.000000"
 preserveAspectRatio="xMidYMid meet">

<g transform="translate(0.000000,24.000000) scale(0.100000,-0.100000)"
fill="#000000" stroke="none">
<path d="M89 219 c-8 -15 -14 -18 -22 -10 -16 16 -51 -17 -36 -35 8 -9 5 -15
-10 -24 -27 -14 -27 -46 0 -60 15 -9 18 -15 10 -24 -15 -18 20 -51 36 -35 8 8
14 5 22 -10 15 -27 47 -27 62 0 8 15 14 18 22 10 16 -16 51 17 36 35 -8 9 -5
15 10 24 27 14 27 46 0 61 -15 8 -18 14 -10 22 16 16 -17 51 -35 36 -9 -8 -15
-5 -24 10 -14 27 -46 27 -61 0z m65 -65 c31 -30 9 -84 -34 -84 -10 0 -26 7
-34 16 -31 30 -9 84 34 84 10 0 26 -7 34 -16z"/>
</g>
</svg>
